<svg version="1.1" xmlns="http://www.w3.org/2000/svg" xmlns:xlink="http://www.w3.org/1999/xlink" width="359.61529541015625" height="49.29000473022461"><defs></defs><g transform="translate(-180.37376403808594,18.09000015258789)"><rect fill="rgb(255,255,255)" stroke="none" x="0" y="0" width="359.61529541015625" height="49.29000473022461" fill-opacity="0" transform="translate(180.37376403808594,-18.09000015258789)"></rect><g transform="translate(181.3870147539391,25.5) rotate(0,0,0) translate(-181.3870147539391,-25.5) matrix(1,0,0.3249196962329063,1,181.3870147539391,25.5)"><path fill="rgb(210,214,210)" fill-opacity="1" d="M21.22-32.41L21.22-32.41L21.89-32.57Q22.04-32.57 22.04-32.30Q22.04-32.04 21.23-31.43Q20.42-30.82 19.28-30.82Q18.14-30.82 17.50-31.47Q16.86-32.13 16.86-33.18L16.86-33.18Q16.86-35.41 19.76-37.60Q22.67-39.79 26.91-41.12Q31.15-42.44 35.04-42.44L35.04-42.44Q40.74-42.44 43.52-40.59Q46.29-38.74 46.29-35.62L46.29-35.62Q46.29-31.64 40.76-27.91L40.76-27.91Q37.86-25.94 34.48-24.77L34.48-24.77Q38.18-24.37 40.39-22.38L40.39-22.38Q42.05-20.88 42.05-18.56Q42.05-16.24 39.84-13.84Q37.62-11.43 33.94-9.85Q30.26-8.27 26.42-8.27L26.42-8.27Q21.99-8.27 19.90-10.21L19.90-10.21Q18.97-11.11 18.97-11.80Q18.97-12.49 19.32-13.26L19.32-13.26Q17.61-10.17 16.81-8.60L16.81-8.60Q16.46-7.89 15.39-7.89Q14.32-7.89 13.74-8.46Q13.15-9.02 13.15-9.72Q13.15-10.43 13.36-10.96L13.36-10.96Q14.42-13.73 20.80-23.91Q27.19-34.10 28.62-35.71L28.62-35.71Q29.37-36.63 32.02-36.63L32.02-36.63Q33.07-36.63 33.07-36.16L33.07-36.16Q33.07-35.81 29.96-30.89Q26.84-25.96 26.70-25.73L26.70-25.73Q29.96-26.67 33.37-28.30Q36.78-29.93 39.32-31.99Q41.86-34.05 41.86-35.71L41.86-35.71Q41.86-38.46 35.91-38.46L35.91-38.46Q29.68-38.46 23.91-35.15L23.91-35.15Q22.48-34.33 21.73-33.65Q20.98-32.97 20.98-32.69Q20.98-32.41 21.22-32.41ZM25.43-21.21L25.43-21.21Q25.01-21.21 24.50-22.19L24.50-22.19Q22.27-18.63 19.83-14.27L19.83-14.27Q20.93-15.79 23.04-15.79L23.04-15.79Q24.45-15.79 24.45-15.44L24.45-15.44Q24.45-15.30 24.14-15.18L24.14-15.18Q23.21-14.83 23.21-14.13L23.21-14.13Q23.21-12.44 26.79-12.44L26.79-12.44Q31.64-12.44 35.58-15.82L35.58-15.82Q37.69-17.60 37.69-18.93L37.69-18.93Q37.69-19.75 35.98-20.74L35.98-20.74Q33.99-21.84 29.91-21.84L29.91-21.84Q27.07-21.84 26.28-21.52Q25.48-21.21 25.43-21.21ZM58.39-25.94L58.39-25.94Q58.39-24.39 57.13-23.22Q55.88-22.05 54.29-22.05L54.29-22.05Q53.77-22.05 53.61-22.30Q53.44-22.54 53.44-22.94Q53.44-23.34 53.54-23.71L53.54-23.71Q52.69-23.43 51.66-22.85Q50.63-22.26 49.13-21.11Q47.63-19.96 47.63-19.40L47.63-19.40Q47.63-19.21 48.18-19.21Q48.73-19.21 49.88-19.60Q51.03-19.99 51.48-19.99Q51.94-19.99 52.08-19.94L52.08-19.94Q52.39-19.78 52.74-19.23Q53.09-18.68 53.09-18.36Q53.09-18.04 52.48-17.53Q51.87-17.01 51.10-16.74Q50.32-16.47 50.07-16.33L50.07-16.33Q45.12-13.57 45.12-12.54L45.12-12.54Q45.12-10.71 48.24-10.71L48.24-10.71Q50.23-10.71 52.25-11.97L52.25-11.97Q53.96-13.05 55.33-14.16Q56.70-15.28 57.06-15.54Q57.43-15.79 57.61-15.79L57.61-15.79Q58.22-15.79 58.22-14.43Q58.22-13.07 58.06-12.64Q57.89-12.21 57.12-11.57L57.12-11.57Q52.11-7.50 47.63-7.50L47.63-7.50Q45.24-7.50 43.81-8.15L43.81-8.15Q41.18-9.35 41.18-11.81L41.18-11.81Q41.18-15.04 45.66-16.71L45.66-16.71Q44.77-17.11 44.51-17.73Q44.25-18.35 44.25-19.72Q44.25-21.09 45.53-22.63Q46.81-24.16 48.66-25.14L48.66-25.14Q52.79-27.37 56.02-27.37L56.02-27.37Q56.79-27.37 57.59-27.00Q58.39-26.62 58.39-25.94ZM69.73-12.02L69.73-12.02Q69.73-10.99 71.14-10.99L71.14-10.99Q71.89-10.99 73.02-11.74Q74.16-12.49 75.07-13.38L75.07-13.38Q77.51-15.79 77.84-15.79L77.84-15.79Q78.45-15.79 78.45-14.04Q78.45-12.28 77.35-11.62L77.35-11.62Q74.00-8.60 72.17-7.94L72.17-7.94Q71.14-7.59 69.89-7.61Q68.65-7.64 67.43-8.69Q66.22-9.75 66.22-11.26Q66.22-12.77 67.01-14.69Q67.81-16.61 68.64-17.98Q69.47-19.36 70.69-21.17Q71.91-22.99 71.98-23.43L71.98-23.43L71.93-23.48Q71.16-23.41 68.10-20.43Q65.04-17.46 63.05-15.25Q61.06-13.05 58.29-9.37L58.29-9.37Q57.52-8.36 57.03-8.36Q56.54-8.36 55.70-8.68Q54.87-9.00 54.68-9.14Q54.50-9.28 54.50-9.56Q54.50-9.84 54.66-10.25Q54.82-10.66 54.98-10.93Q55.13-11.20 55.48-11.76Q55.83-12.32 56.88-14.14Q57.92-15.96 60.07-19.57Q62.23-23.18 62.65-23.93L62.65-23.93Q63.54-25.47 64.11-26.18L64.11-26.18Q65.16-27.51 67.67-27.51L67.67-27.51Q68.23-27.51 68.23-26.81L68.23-26.81Q68.23-25.71 66.19-22.66L66.19-22.66L65.21-21.18Q69.26-25.68 72.05-26.88L72.05-26.88Q73.41-27.46 74.50-27.46Q75.59-27.46 76.23-26.88Q76.88-26.29 76.88-25.58Q76.88-24.86 76.39-23.87Q75.89-22.87 75.39-22.09Q74.89-21.30 74.07-20.11Q73.25-18.91 73.18-18.80Q73.11-18.70 72.81-18.24Q72.52-17.79 72.38-17.57Q72.24-17.36 71.91-16.84Q71.58-16.31 71.38-15.96Q71.18-15.61 70.89-15.09Q70.60-14.57 70.42-14.20Q70.25-13.82 70.06-13.38L70.06-13.38Q69.73-12.56 69.73-12.02ZM93.43-34.47L93.43-34.47Q93.43-32.93 91.75-31.45Q90.07-29.97 88.53-29.97L88.53-29.97Q87.43-29.97 87.43-31.32Q87.43-32.67 88.97-34.14Q90.52-35.62 91.97-35.62Q93.43-35.62 93.43-34.47ZM87.17-15.56Q87.54-15.84 87.84-15.75Q88.13-15.65 88.20-15.23L88.20-15.23Q88.50-13.71 88.18-12.68L88.18-12.68Q88.06-12.49 86.43-11.57Q84.80-10.66 82.73-9.46Q80.65-8.27 78.12-6.39Q75.59-4.52 73.93-2.69L73.93-2.69Q72.94-0.72 71.14 1.48L71.14 1.48Q67.64 5.70 65.32 5.70L65.32 5.70Q64.39 5.70 63.73 5.09Q63.07 4.48 63.07 3.57Q63.07 2.65 63.53 1.87Q63.99 1.08 65.07 0.03Q66.14-1.03 66.92-1.71Q67.69-2.39 69.37-3.75Q71.04-5.11 71.65-5.62L71.65-5.62Q72.68-7.36 74.28-10.10Q75.87-12.84 76.81-14.41L76.81-14.41Q79.48-18.89 81.03-21.09L81.03-21.09Q80.91-21.11 80.51-21.07Q80.11-21.02 79.84-21.03Q79.57-21.04 79.28-21.31Q78.99-21.58 78.89-22.14L78.89-22.14Q78.75-22.96 81.58-24.90Q84.40-26.83 85.41-26.83L85.41-26.83Q87.17-26.83 87.17-25.07L87.17-25.07Q87.17-24.89 86.98-24.35Q86.79-23.81 82.96-17.60Q79.13-11.39 77.65-9.14L77.65-9.14Q77.86-9.28 78.95-10.07Q80.04-10.87 81.24-11.74Q82.43-12.61 83.72-13.50L83.72-13.50Q86.70-15.56 87.17-15.56L87.17-15.56ZM104.75-26.22L104.75-26.22Q106.53-26.22 106.53-25.00L106.53-25.00Q106.53-24.35 106.22-24.04Q105.92-23.74 104.92-22.02Q103.93-20.29 102.72-17.61Q101.51-14.93 101.16-13.03L101.16-13.03Q101.09-12.79 101.09-12.37L101.09-12.37Q101.09-11.08 101.79-11.08Q102.50-11.08 103.46-11.75Q104.42-12.42 105.17-13.18Q105.92-13.94 106.63-14.74Q107.35-15.54 107.49-15.65Q107.63-15.77 107.91-15.77L107.91-15.77Q108.36-15.77 108.45-15.09Q108.54-14.41 108.54-13.68Q108.54-12.96 108.40-12.68L108.40-12.68Q107.72-11.34 105.41-9.46Q103.11-7.59 101.22-7.59Q99.33-7.59 98.44-8.74Q97.55-9.89 97.55-11.28Q97.55-12.68 98.02-13.73L98.02-13.73Q96.07-11.20 93.55-9.44Q91.04-7.68 89.44-7.68Q87.85-7.68 86.84-8.64L86.84-8.64Q85.55-9.84 85.55-11.96Q85.55-14.08 86.50-16.23Q87.45-18.37 89.00-20.14Q90.54-21.91 92.39-23.36L92.39-23.36Q96.29-26.41 99.57-26.41L99.57-26.41Q100.83-26.41 101.63-25.99Q102.43-25.57 102.64-24.93L102.64-24.93Q103.20-25.78 103.59-26Q103.97-26.22 104.75-26.22ZM101.63-23.62L101.63-23.62Q97.62-23.62 93.33-19.17L93.33-19.17Q91.81-17.57 90.53-15.35Q89.25-13.12 89.25-12.30Q89.25-11.48 89.72-11.48L89.72-11.48Q90.38-11.48 93.38-14.07Q96.38-16.66 97.36-17.88L97.36-17.88Q98.44-19.24 101.63-23.62ZM106.41-8.27L106.41-8.27L105.26-8.32L104.84-8.32Q104.61-8.39 104.34-8.60Q104.07-8.81 103.93-8.90Q103.79-9.00 103.79-9.24Q103.79-9.49 103.97-10.10L103.97-10.10Q108.54-20.15 112.81-26.18L112.81-26.18Q113.28-26.83 114.32-27.17Q115.36-27.51 116.35-27.51L116.35-27.51Q116.93-27.51 116.93-26.60L116.93-26.60Q116.93-26.34 116.75-25.91Q116.56-25.47 115.81-24.49Q115.06-23.50 114.03-22.24Q113.00-20.97 112.86-20.79L112.86-20.79Q116.07-24.11 118.66-25.74Q121.25-27.37 122.41-27.37Q123.57-27.37 124.19-26.70Q124.81-26.04 124.81-25.27Q124.81-24.51 124.70-24.01Q124.60-23.50 124.32-22.95Q124.04-22.40 123.84-22.02Q123.64-21.63 123.17-21.01Q122.70-20.39 122.52-20.15Q122.35-19.92 121.80-19.26Q121.25-18.61 121.20-18.54L121.20-18.54Q121.86-19.19 123.03-20.48Q124.20-21.77 125.01-22.64Q125.82-23.50 127.04-24.59Q128.25-25.68 129.31-26.36L129.31-26.36Q131.84-27.96 134.44-27.96L134.44-27.96Q135.33-27.96 135.94-27.39Q136.55-26.83 136.55-26.05Q136.55-25.26 134.65-22.30Q132.75-19.33 130.87-16.34Q128.98-13.36 128.98-12.58L128.98-12.58Q128.98-11.50 129.38-11.30Q129.78-11.11 130.34-11.15Q130.90-11.20 131.92-11.88Q132.94-12.56 133.74-13.29L133.74-13.29Q135.03-14.46 136.13-15.56L136.13-15.56Q136.36-15.77 136.64-15.77L136.64-15.77Q137.09-15.77 137.18-15.09Q137.28-14.41 137.28-13.68Q137.28-12.96 137.14-12.68L137.14-12.68Q136.46-11.36 134.14-9.46Q131.82-7.57 129.68-7.57L129.68-7.57Q129.43-7.57 129.31-7.59L129.31-7.59Q126.89-7.82 125.97-8.91Q125.04-10.00 125.04-11.50Q125.04-13.00 126.06-15.14Q127.08-17.27 128.30-19.00Q129.52-20.74 130.54-22.13Q131.56-23.53 131.56-23.64Q131.56-23.76 131.37-23.76L131.37-23.76Q130.64-23.76 128.14-21.42L128.14-21.42Q123.85-17.41 120.73-13.68L120.73-13.68Q119.91-12.70 116.84-8.69L116.84-8.69Q116.49-8.22 115.73-8.22Q114.97-8.22 114.14-8.52Q113.32-8.81 113.32-9.28L113.32-9.28Q113.32-9.51 117.05-15.85Q120.78-22.19 120.78-22.77Q120.78-23.34 120.09-23.34Q119.39-23.34 117.24-21.28L117.24-21.28Q111.31-15.61 108.05-10.00L108.05-10.00Q107.84-9.68 107.23-8.97Q106.62-8.27 106.41-8.27ZM150.87-34.14L150.87-34.14Q150.87-32.81 149.63-31.46Q148.39-30.11 147.04-30.11Q145.69-30.11 145.69-31.52Q145.69-32.93 146.88-34.20Q148.06-35.48 149.49-35.48L149.49-35.48Q150.12-35.48 150.50-35.13Q150.87-34.78 150.87-34.14ZM147.07-13.68L147.07-13.68Q147.07-12.98 146.93-12.68L146.93-12.68Q145.79-10.33 143.28-8.89Q140.77-7.45 138.92-7.45Q137.07-7.45 135.73-8.69Q134.39-9.93 134.39-11.22Q134.39-12.51 135.68-14.97Q136.97-17.43 138.26-19.52Q139.55-21.61 139.55-21.78Q139.55-21.96 139.07-22.47Q138.59-22.99 138.59-23.23Q138.59-23.48 139.56-24.52Q140.54-25.57 141.93-26.59Q143.32-27.61 144.06-27.61Q144.80-27.61 145.39-26.95Q145.97-26.29 145.97-25.75Q145.97-25.21 140.39-15.61L140.39-15.61Q140.32-15.46 140.01-14.98Q139.69-14.50 139.52-14.19Q139.34-13.87 139.11-13.43L139.11-13.43Q138.64-12.49 138.64-11.86L138.64-11.86Q138.64-11.06 139.72-11.06Q140.79-11.06 141.95-11.80Q143.11-12.54 143.96-13.43L143.96-13.43Q146.16-15.79 146.47-15.79L146.47-15.79Q147.07-15.79 147.07-13.68ZM157.57-12.02L157.57-12.02Q157.57-10.99 158.98-10.99L158.98-10.99Q159.73-10.99 160.87-11.74Q162.00-12.49 162.92-13.38L162.92-13.38Q165.36-15.79 165.68-15.79L165.68-15.79Q166.29-15.79 166.29-14.04Q166.29-12.28 165.19-11.62L165.19-11.62Q161.84-8.60 160.01-7.94L160.01-7.94Q158.98-7.59 157.74-7.61Q156.50-7.64 155.28-8.69Q154.06-9.75 154.06-11.26Q154.06-12.77 154.86-14.69Q155.65-16.61 156.48-17.98Q157.32-19.36 158.54-21.17Q159.75-22.99 159.82-23.43L159.82-23.43L159.78-23.48Q159.00-23.41 155.95-20.43Q152.89-17.46 150.89-15.25Q148.90-13.05 146.14-9.37L146.14-9.37Q145.36-8.36 144.87-8.36Q144.38-8.36 143.55-8.68Q142.72-9.00 142.53-9.14Q142.34-9.28 142.34-9.56Q142.34-9.84 142.50-10.25Q142.67-10.66 142.82-10.93Q142.97-11.20 143.32-11.76Q143.68-12.32 144.72-14.14Q145.76-15.96 147.92-19.57Q150.07-23.18 150.50-23.93L150.50-23.93Q151.39-25.47 151.95-26.18L151.95-26.18Q153.00-27.51 155.51-27.51L155.51-27.51Q156.07-27.51 156.07-26.81L156.07-26.81Q156.07-25.71 154.04-22.66L154.04-22.66L153.05-21.18Q157.11-25.68 159.89-26.88L159.89-26.88Q161.25-27.46 162.34-27.46Q163.43-27.46 164.08-26.88Q164.72-26.29 164.72-25.58Q164.72-24.86 164.23-23.87Q163.74-22.87 163.23-22.09Q162.73-21.30 161.91-20.11Q161.09-18.91 161.02-18.80Q160.95-18.70 160.66-18.24Q160.36-17.79 160.22-17.57Q160.08-17.36 159.75-16.84Q159.43-16.31 159.23-15.96Q159.03-15.61 158.73-15.09Q158.44-14.57 158.27-14.20Q158.09-13.82 157.90-13.38L157.90-13.38Q157.57-12.56 157.57-12.02ZM179.00-14.86L179.00-14.86L178.69-14.22Q178.69-13.54 180.60-12.92Q182.51-12.30 184.80-12.30Q187.08-12.30 189.82-12.98Q192.57-13.66 194.59-14.64Q196.62-15.63 197.95-16.71Q199.27-17.79 199.27-18.58L199.27-18.58Q199.27-19.59 196.93-20.46Q194.58-21.32 190.12-22.37Q185.65-23.41 183.58-25.00Q181.50-26.60 181.50-28.88Q181.50-31.17 183.14-33.25Q184.79-35.34 187.42-36.96Q190.06-38.57 193.18-39.84L193.18-39.84Q199.62-42.44 205.13-42.44L205.13-42.44Q207.24-42.44 208.86-42.07L208.86-42.07Q211.95-41.34 211.95-40.14Q211.95-38.95 211.74-38.52Q211.53-38.08 211.40-37.94Q211.27-37.80 211.07-37.66Q210.87-37.52 210.78-37.45L210.78-37.45Q209.75-36.58 205.13-36.37L205.13-36.37Q203.54-36.30 203.39-36.21Q203.25-36.11 203.15-36.11Q203.04-36.11 202.90-36.30Q202.76-36.49 202.76-36.91Q202.76-37.33 203.68-38.46L203.68-38.46Q200.82-38.29 197.57-37.14Q194.32-36.00 191.93-34.55Q189.54-33.11 187.95-31.72Q186.36-30.32 186.36-29.75Q186.36-29.18 186.71-28.80L186.71-28.80Q187.69-27.75 192.17-26.60L192.17-26.60Q196.81-25.40 198.36-24.68Q199.90-23.95 200.92-23.29Q201.94-22.64 202.55-21.96L202.55-21.96Q203.98-20.32 203.98-18.63Q203.98-16.94 203.08-15.46Q202.18-13.99 200.36-12.61Q198.54-11.22 196.08-10.14L196.08-10.14Q190.69-7.73 183.24-7.73L183.24-7.73Q177.80-7.73 176.30-10.61L176.30-10.61Q175.90-11.34 175.90-12.13Q175.90-12.91 176.27-13.54Q176.63-14.18 177.14-14.50L177.14-14.50Q178.15-15.14 178.57-15.14Q179.00-15.14 179.00-14.86ZM208.20-8.64Q208.20-10.07 209.32-11.19Q210.45-12.30 211.53-12.30L211.53-12.30Q213.47-12.30 213.47-10.71L213.47-10.71Q213.47-9.39 212.37-8.16Q211.27-6.93 209.89-6.93L209.89-6.93Q208.20-6.93 208.20-8.64L208.20-8.64ZM240.24-33.56L240.24-33.56Q239.47-33.00 239.47-32.30Q239.47-31.61 240.50-31.61L240.50-31.61Q240.94-31.61 241.64-31.87L241.64-31.87L241.67-31.87Q241.79-31.87 241.79-31.39Q241.79-30.91 241.69-30.82L241.69-30.82Q239.28-29.11 237.61-29.11Q235.95-29.11 235.20-30.04Q234.45-30.98 234.45-32.49Q234.45-34.00 236.11-35.70Q237.78-37.40 240.59-38.84Q243.40-40.29 247.56-41.22Q251.72-42.16 256.91-42.16Q262.11-42.16 265.60-40.13Q269.09-38.11 269.09-35.52Q269.09-32.93 267.27-30.25Q265.46-27.58 262.73-25.60Q260.00-23.62 256.67-22.36Q253.34-21.09 250.72-21.09Q248.09-21.09 246.64-23.20L246.64-23.20Q243.07-17.60 241.81-15.55Q240.54-13.50 239.66-12.10Q238.79-10.71 238.30-9.91Q237.82-9.11 237.80-9.09L237.80-9.09Q237.31-8.55 236.75-8.55L236.75-8.55L235.60-8.34L235.04-8.39L234.64-8.39Q233.25-8.39 233.25-9.25L233.25-9.25Q233.25-10.36 237.87-17.55Q242.49-24.75 246.58-30.61Q250.67-36.46 251.35-37.19Q252.03-37.92 252.55-38.05Q253.08-38.18 254.25-38.18L254.25-38.18L255.43-38.18Q255.73-38.18 255.73-37.70Q255.73-37.21 255.61-37.03L255.61-37.03Q253.55-34.14 248.16-25.64L248.16-25.64Q248.35-25.26 248.78-25.17Q249.22-25.07 249.71-25.07L249.71-25.07L250.39-25.07Q252.54-25.07 255.05-26.12Q257.56-27.16 259.46-28.61Q261.36-30.07 262.63-31.65Q263.91-33.23 263.91-34.36Q263.91-35.48 263.21-36.37Q262.50-37.26 261.29-37.78L261.29-37.78Q258.89-38.79 255.48-38.79Q252.07-38.79 247.26-37.02Q242.44-35.25 240.24-33.56ZM278.00-25.94L278.00-25.94Q278.00-24.39 276.74-23.22Q275.49-22.05 273.89-22.05L273.89-22.05Q273.38-22.05 273.22-22.30Q273.05-22.54 273.05-22.94Q273.05-23.34 273.14-23.71L273.14-23.71Q272.30-23.43 271.27-22.85Q270.24-22.26 268.74-21.11Q267.24-19.96 267.24-19.40L267.24-19.40Q267.24-19.21 267.79-19.21Q268.34-19.21 269.49-19.60Q270.64-19.99 271.09-19.99Q271.55-19.99 271.69-19.94L271.69-19.94Q272.00-19.78 272.35-19.23Q272.70-18.68 272.70-18.36Q272.70-18.04 272.09-17.53Q271.48-17.01 270.71-16.74Q269.93-16.47 269.68-16.33L269.68-16.33Q264.73-13.57 264.73-12.54L264.73-12.54Q264.73-10.71 267.85-10.71L267.85-10.71Q269.84-10.71 271.86-11.97L271.86-11.97Q273.57-13.05 274.94-14.16Q276.31-15.28 276.67-15.54Q277.04-15.79 277.22-15.79L277.22-15.79Q277.83-15.79 277.83-14.43Q277.83-13.07 277.67-12.64Q277.50-12.21 276.73-11.57L276.73-11.57Q271.72-7.50 267.24-7.50L267.24-7.50Q264.85-7.50 263.42-8.15L263.42-8.15Q260.79-9.35 260.79-11.81L260.79-11.81Q260.79-15.04 265.27-16.71L265.27-16.71Q264.38-17.11 264.12-17.73Q263.86-18.35 263.86-19.72Q263.86-21.09 265.14-22.63Q266.42-24.16 268.27-25.14L268.27-25.14Q272.39-27.37 275.63-27.37L275.63-27.37Q276.40-27.37 277.20-27.00Q278.00-26.62 278.00-25.94ZM292.13-38.46L293.23-38.60L294.19-38.36Q294.40-38.36 294.57-38.15Q294.73-37.94 294.73-37.75Q294.73-37.57 294.24-36.75Q293.75-35.93 293.08-34.88Q292.41-33.84 292.36-33.75L292.36-33.75Q294.19-33.89 294.95-33.89Q295.72-33.89 296.00-33.78Q296.28-33.68 296.64-33.20Q297.00-32.71 297.31-32.47Q297.61-32.22 297.61-31.73Q297.61-31.24 297.02-30.90Q296.42-30.56 295.74-30.49L295.74-30.49Q290.30-29.95 289.74-29.93L289.74-29.93Q287.84-27.02 284.43-20.87Q281.02-14.71 280.81-13.17L280.81-13.17Q280.72-12.46 280.72-12.02L280.72-12.02Q280.72-11.11 281.68-11.11Q282.64-11.11 283.81-11.84Q284.98-12.58 285.97-13.45L285.97-13.45Q288.59-15.79 288.78-15.79L288.78-15.79Q289.39-15.79 289.39-13.68L289.39-13.68Q289.39-12.54 288.33-11.62L288.33-11.62Q285.97-9.58 284.35-8.55Q282.73-7.52 281.11-7.52L281.11-7.52Q280.76-7.52 280.46-7.59L280.46-7.59Q278.58-7.94 277.70-8.96Q276.82-9.98 276.84-11.71Q276.85-13.45 277.87-15.92Q278.89-18.39 280.43-21.18L280.43-21.18Q282.97-25.73 285.50-29.71L285.50-29.71L284.61-29.60Q281.89-29.29 281.44-29.29L281.44-29.29L281.23-29.29Q280.55-29.29 279.92-29.56Q279.29-29.83 279.29-30.23Q279.29-30.63 279.63-31.00Q279.97-31.38 280.04-31.59L280.04-31.59Q280.20-32.11 281.27-32.74Q282.33-33.37 282.87-33.41Q283.41-33.44 283.91-33.46Q284.42-33.49 285.04-33.51Q285.66-33.54 285.99-33.56L285.99-33.56L288.10-33.65Q290.07-36.61 290.80-37.45Q291.54-38.29 291.66-38.38Q291.78-38.46 292.13-38.46L292.13-38.46ZM296.07-22.66L295.08-21.18Q300.61-27.46 304.50-27.46L304.50-27.46Q305.47-27.46 306.09-26.89Q306.71-26.32 306.71-25.40Q306.71-24.49 305.41-22.34Q304.11-20.20 303.00-18.72L303.00-18.72Q302.42-17.97 301.68-17.97Q300.94-17.97 300.53-18.51Q300.12-19.05 300.12-19.78L300.12-19.78Q300.12-21.39 301.86-23.43L301.86-23.43L301.81-23.48Q301.04-23.41 297.98-20.43Q294.92-17.46 292.77-15.10Q290.63-12.75 288.12-9.37L288.12-9.37Q287.39-8.36 286.89-8.36Q286.39-8.36 285.55-8.68Q284.72-9.00 284.55-9.14Q284.37-9.28 284.37-9.61Q284.37-9.93 284.56-10.37Q284.75-10.80 285.25-11.60Q285.75-12.39 286.77-14.18Q287.79-15.96 289.95-19.57Q292.11-23.18 292.53-23.93L292.53-23.93Q293.42-25.47 293.98-26.18L293.98-26.18Q295.04-27.51 297.54-27.51L297.54-27.51Q298.11-27.51 298.11-26.81L298.11-26.81Q298.11-25.71 296.07-22.66L296.07-22.66ZM319.43-34.14L319.43-34.14Q319.43-32.81 318.19-31.46Q316.95-30.11 315.60-30.11Q314.25-30.11 314.25-31.52Q314.25-32.93 315.44-34.20Q316.62-35.48 318.05-35.48L318.05-35.48Q318.68-35.48 319.06-35.13Q319.43-34.78 319.43-34.14ZM315.64-13.68L315.64-13.68Q315.64-12.98 315.50-12.68L315.50-12.68Q314.35-10.33 311.84-8.89Q309.33-7.45 307.48-7.45Q305.63-7.45 304.29-8.69Q302.96-9.93 302.96-11.22Q302.96-12.51 304.25-14.97Q305.54-17.43 306.82-19.52Q308.11-21.61 308.11-21.78Q308.11-21.96 307.63-22.47Q307.15-22.99 307.15-23.23Q307.15-23.48 308.13-24.52Q309.10-25.57 310.49-26.59Q311.89-27.61 312.63-27.61Q313.36-27.61 313.95-26.95Q314.54-26.29 314.54-25.75Q314.54-25.21 308.96-15.61L308.96-15.61Q308.89-15.46 308.57-14.98Q308.25-14.50 308.08-14.19Q307.90-13.87 307.67-13.43L307.67-13.43Q307.20-12.49 307.20-11.86L307.20-11.86Q307.20-11.06 308.28-11.06Q309.36-11.06 310.52-11.80Q311.68-12.54 312.52-13.43L312.52-13.43Q314.72-15.79 315.03-15.79L315.03-15.79Q315.64-15.79 315.64-13.68ZM333.33-43.59Q334.46-43.59 335.31-42.92Q336.17-42.25 336.17-40.94Q336.17-39.63 334.72-36.83Q333.26-34.03 331.22-31.11Q329.18-28.19 326.61-24.91L326.61-24.91Q322.53-19.71 318.78-15.56L318.78-15.56Q318.75-15.28 318.58-14.52Q318.40-13.75 318.40-12.98Q318.40-12.21 319.12-11.59Q319.83-10.96 320.89-10.96Q321.94-10.96 323.15-11.71Q324.36-12.46 325.25-13.38L325.25-13.38Q327.59-15.79 328.15-15.79Q328.72-15.79 328.72-14.08L328.72-14.08L328.72-13.61Q328.72-12.70 328.39-12.28L328.39-12.28Q326.42-9.86 323.96-8.68Q321.50-7.50 319.29-7.50Q317.09-7.50 315.94-8.84Q314.79-10.19 314.79-12.54L314.79-12.54Q314.79-17.11 317.24-23.28Q319.69-29.46 322.76-33.79L322.76-33.79Q329.68-43.59 333.33-43.59L333.33-43.59ZM332.28-39.70L332.28-39.70Q332.28-40.05 332.04-40.05L332.04-40.05Q331.22-40.05 327.73-35.36Q324.24-30.68 322.68-27.89Q321.12-25.10 319.74-20.88L319.74-20.88Q322.50-24.16 327.39-31.11Q332.28-38.06 332.28-39.70ZM345.71-43.59Q346.83-43.59 347.69-42.92Q348.54-42.25 348.54-40.94Q348.54-39.63 347.09-36.83Q345.64-34.03 343.60-31.11Q341.56-28.19 338.98-24.91L338.98-24.91Q334.90-19.71 331.15-15.56L331.15-15.56Q331.13-15.28 330.95-14.52Q330.78-13.75 330.78-12.98Q330.78-12.21 331.49-11.59Q332.21-10.96 333.26-10.96Q334.32-10.96 335.52-11.71Q336.73-12.46 337.62-13.38L337.62-13.38Q339.97-15.79 340.53-15.79Q341.09-15.79 341.09-14.08L341.09-14.08L341.09-13.61Q341.09-12.70 340.76-12.28L340.76-12.28Q338.79-9.86 336.33-8.68Q333.87-7.50 331.67-7.50Q329.47-7.50 328.32-8.84Q327.17-10.19 327.17-12.54L327.17-12.54Q327.17-17.11 329.62-23.28Q332.07-29.46 335.14-33.79L335.14-33.79Q342.05-43.59 345.71-43.59L345.71-43.59ZM344.65-39.70L344.65-39.70Q344.65-40.05 344.42-40.05L344.42-40.05Q343.60-40.05 340.11-35.36Q336.61-30.68 335.05-27.89Q333.50-25.10 332.11-20.88L332.11-20.88Q334.88-24.16 339.77-31.11Q344.65-38.06 344.65-39.70ZM354.57-26.27Q355.27-26.27 356.01-25.64Q356.75-25.00 356.75-23.70Q356.75-22.40 355.83-20.33Q354.92-18.25 353.32-16.11Q351.73-13.96 349.82-12.08Q347.91-10.19 345.70-8.98Q343.48-7.78 341.68-7.78Q339.87-7.78 338.78-8.91Q337.69-10.05 337.69-12.08Q337.69-14.11 338.69-16.57Q339.68-19.03 341.25-20.91Q342.82-22.80 344.65-24.30L344.65-24.30Q348.47-27.37 351.36-27.37L351.36-27.37Q352.64-27.37 353.30-26.74L353.30-26.74Q353.54-26.53 353.54-26.36L353.54-26.36L353.54-26.22Q353.86-26.27 354.57-26.27ZM352.20-23.15L352.20-23.15L352.04-23.15Q351.22-23.15 351.22-24.35L351.22-24.35Q349.50-23.79 347.63-22.38Q345.75-20.97 344.28-19.05L344.28-19.05Q341.28-15.21 341.23-12.56L341.23-12.56Q341.23-11.25 342.19-11.25Q343.15-11.25 345.05-12.51Q346.95-13.78 348.81-16.12Q350.68-18.46 351.60-20.19Q352.53-21.91 352.53-22.53Q352.53-23.15 352.20-23.15Z"></path></g></g></svg>