<svg xmlns="http://www.w3.org/2000/svg" version="1.1" xmlns:xlink="http://www.w3.org/1999/xlink" width="739.5822306664735" height="200" viewBox="-9.458755493164062 12.199999809265137 176.29798889160156 40.379249572753906"><path d="M2.20 50.44C3.68 50.32 5.36 50.32 7 50.04C10.16 49.52 13.08 48.28 15.84 46.64C17.28 45.76 18.52 44.60 19.48 43.20C21.40 40.48 22.40 37.40 22.36 34.04C22.36 32.88 22.40 31.72 22.16 30.60C21.76 28.88 21.16 27.24 20.24 25.72C19.24 24.16 18 23 16.12 22.64C16.04 22.64 15.96 22.60 15.88 22.56C15.56 22.44 15.44 21.96 15.68 21.68C16.68 20.32 17.56 18.92 18.44 17.48C18.92 16.72 19.20 15.92 19.48 15.08C19.76 14.28 19.32 13.24 18.60 12.76C18.08 12.40 17.52 12.20 16.88 12.20C16 12.20 15.12 12.28 14.24 12.48C11.72 13 9.32 13.84 7 14.88C4.76 15.92 2.68 17.24 0.96 19.12C0.36 19.76-0.08 20.52-0.44 21.32C-0.84 22.28-0.32 23.44 0.72 23.92C0.84 24 1.08 23.96 1.20 23.92C1.44 23.84 1.60 23.52 1.52 23.24C1.48 23.08 1.40 22.92 1.32 22.76C1.04 22.24 1.16 21.76 1.44 21.28C2.24 19.88 3.36 18.76 4.68 17.88C7.60 15.92 10.72 14.56 14.12 13.88C15.08 13.68 16.04 13.60 17 13.80C17.36 13.88 17.72 14.40 17.64 14.80C17.56 15.16 17.52 15.52 17.40 15.84C17 16.60 16.56 17.40 16.08 18.12C14.12 21.24 13.68 22.12 10.04 24.20C8.64 25 7.48 26.08 6.56 27.40C5.72 28.64 4.76 29.80 4 31.08C3.12 32.64 2.12 34.08 1.24 35.60C0.68 36.52 0.24 37.44-0.24 38.40C-0.32 38.60-0.28 38.92-0.20 39.16C0.16 40.16 0.88 40.28 1.60 39.56C2.20 39 2.76 38.36 2.68 37.52C2.64 36.56 2.96 35.80 3.48 35.04C3.96 34.32 4.40 33.56 4.92 32.84C5.84 31.56 6.84 30.32 7.72 29C9 27 10.76 25.64 13 24.84C13.24 24.76 13.48 24.64 13.72 24.52C15.16 23.96 16.84 24.32 17.84 25.48C18.60 26.36 19.28 27.24 19.76 28.32C20.40 29.76 20.80 31.28 20.76 32.92C20.76 33.24 20.76 33.60 20.76 33.96C20.76 35.68 20.16 38.52 19.48 40.12C18.96 41.44 18.12 42.56 17.28 43.72C16.76 44.44 16.16 45.04 15.40 45.56C13.32 47.04 10.88 47.88 8.44 48.64C7.36 49 6.24 49.20 5.08 49.24C3.16 49.36 1.20 49.32-0.72 49.28C-2.40 49.28-3.76 48.40-5.20 47.76C-5.48 47.64-5.76 47.36-5.96 47.08C-7.40 45.40-8.28 43.52-7.92 41.28C-7.84 40.84-7.88 40.36-7.68 40C-7 38.84-6.44 37.64-5.20 36.96C-4.44 36.52-3.72 36.04-3 35.52C-2.92 35.48-2.88 35.20-2.92 35.04C-3 34.80-3.36 34.60-3.56 34.68C-4.76 35.24-5.92 35.88-6.96 36.68C-7.84 37.40-8.52 38.36-9 39.40C-9.56 40.68-9.60 41.96-9.16 43.28C-8.84 44.12-8.52 44.92-8.12 45.72C-7.60 46.76-6.96 47.72-6.04 48.40C-4.76 49.36-3.32 50.08-1.72 50.20C-0.48 50.28 0.76 50.36 2.20 50.44ZM27.76 38.88C27 38.80 26.36 38.76 25.76 38.60C25.08 38.44 24.84 37.88 24.92 37.16C24.96 36.44 25.44 36.32 26.04 36.36C27.88 36.48 29.36 35.72 30.52 34.32C31.16 33.52 31.32 31.80 30.84 31.04C30.36 30.32 29.16 30.12 27.84 30.60C25.88 31.32 24.40 32.68 23.52 34.56C22.84 35.88 22.76 37.44 23.68 38.76C24.60 40.04 26.08 40.16 27.48 39.88C29.04 39.56 30.56 38.96 32.12 38.44C32.28 38.40 32.44 38.16 32.60 38.04C32.36 38 32.16 37.92 31.92 38C30.52 38.28 29.08 38.60 27.76 38.88ZM29.80 32.40C29.64 33.60 27.40 35.08 26.52 34.72C26.36 34.64 26.12 34.20 26.16 34C26.36 33.24 28.24 31.88 29.08 31.92C29.32 31.92 29.60 32.28 29.80 32.40ZM36.36 37.92C36.36 39.84 37.20 40.40 38.44 39.76C39.08 39.40 39.56 38.84 40.16 38.40C40.36 38.24 40.64 38.12 40.88 38C40.96 38.24 41.08 38.48 41.12 38.76C41.20 39.16 41.12 39.64 41.28 40C41.44 40.36 41.80 40.60 42.08 40.92C42.20 40.60 42.40 40.28 42.44 40C42.52 38.52 42.96 37.16 43.88 36C44.16 35.60 44.28 35.08 44.44 34.60C44.72 33.88 45.40 33.04 44.44 32.52C43.52 32.04 43.36 33.16 42.92 33.64C41.60 35.16 40.32 36.72 39 38.24C38.76 38.48 38.24 38.48 37.84 38.60C37.84 38.20 37.72 37.76 37.84 37.44C38.48 35.92 39.24 34.44 39.88 32.92C40.32 31.88 40.12 30.92 39.52 30.56C38.72 30.04 38.20 30.76 37.56 31.04C37.32 31.16 37.08 31.36 36.88 31.56C35 33.44 33.08 35.28 31.24 37.20C30.88 37.52 30.60 38 30.48 38.48C30.44 38.72 30.72 39.08 30.92 39.36C30.96 39.40 31.40 39.20 31.56 39.04C33 37.36 34.36 35.60 35.84 33.96C36.48 33.24 37.44 32.80 38.24 32.24C38.72 33.36 37.84 34.08 37.52 35C37.08 36.12 36.64 37.24 36.36 37.92ZM46.76 32.80C46.76 32.80 46.76 32.80 46.76 32.80C46.76 33.32 46.84 33.88 46.76 34.36C46.16 38.52 45.64 42.68 44.92 46.80C44.72 48.04 44.24 49.24 43.64 50.36C43.04 51.48 42.56 51.52 41.52 50.72C40.76 50.12 40.04 49.48 39.32 48.84C37.84 47.60 36.44 46.36 37.16 44.12C37.20 44 37 43.76 36.88 43.56C36.64 43.72 36.28 43.80 36.20 44C35.60 45.28 35.84 46.56 36.72 47.60C38.04 49.08 39.44 50.56 40.96 51.88C42.16 52.96 43.12 52.76 44.24 51.48C45.32 50.28 45.84 48.80 46.12 47.24C46.48 45.32 46.72 43.40 47.04 41.48C47.44 38.80 47.92 36.16 48.28 33.48C48.40 32.68 48.32 31.84 48.24 31.04C48.20 30.80 47.76 30.40 47.56 30.40C47.28 30.40 46.84 30.76 46.80 31.04C46.68 31.60 46.76 32.20 46.76 32.80ZM50.48 23.84C50.52 23.68 50.56 23.60 50.52 23.52C50.12 22.56 49.72 21.56 49.28 20.60C49.20 20.48 48.84 20.32 48.72 20.36C48.48 20.52 48.20 20.76 48.16 21C48.04 21.80 49.20 23.64 50 24C50.12 24.04 50.36 23.88 50.48 23.84ZM59.08 39.08C59.04 39 58.96 38.96 58.92 38.92C58.80 38.76 58.68 38.64 58.52 38.52C57.76 37.96 57.40 37.56 57.32 37.16C57.24 36.76 57.44 36.24 58 35.44C58 35.40 58.04 35.36 58.08 35.28C58.16 35.20 58.24 35.08 58.32 34.96C58.52 34.60 58.80 34.08 58.56 33.64C58.40 33.32 58.08 33.16 57.52 33.08C56.92 33.04 56.80 32.88 56.72 32.40C56.68 32.16 56.60 31.88 56.48 31.60C56.24 31 55.92 30.40 55.20 30.40C54.92 30.40 54.64 30.48 54.20 30.64C53.76 30.80 53.28 31 52.96 31.36C51.44 33.08 50.44 34.64 49.76 36.28C49.68 36.48 49.64 36.64 49.60 36.80C49.60 36.84 49.60 36.88 49.56 36.92L49.56 36.96L49.56 37C49.52 37.92 49.80 38.72 50.32 39.28C50.76 39.72 51.36 40 52 40C52.48 40 52.92 39.88 53.40 39.64C54 39.32 54.60 38.92 55.16 38.40C55.40 38.16 55.56 38.12 55.64 38.12C55.76 38.12 55.92 38.32 56 38.48C56.44 39.12 56.96 39.84 57.96 39.84C58 39.84 58 39.84 58.04 39.84C58.28 39.84 58.52 39.76 58.68 39.68C58.80 39.64 58.88 39.60 58.92 39.60L59.44 39.44ZM55.48 34.36C55.36 36.24 54.20 37.88 52.64 38.32C52.40 38.36 52.24 38.40 52.08 38.40C52.08 38.40 52.08 38.40 52.08 38.40C51.80 38.40 51.52 38.32 51.44 37.44C51.44 37.40 51.44 37.32 51.44 37.28C51.40 37.20 51.40 37.08 51.44 37.04C52.16 35.28 52.92 33.60 54.56 32.52C54.80 32.40 54.92 32.36 54.96 32.36C55.08 32.36 55.12 32.56 55.16 32.72C55.24 33.20 55.36 33.68 55.44 34.04C55.44 34.16 55.48 34.28 55.48 34.36ZM74.56 38.44C74.76 38.88 74.88 39.92 75.40 40.12C75.92 40.36 76.84 39.88 77.52 39.60C77.92 39.44 78.24 39.08 78.56 38.80C79.48 37.88 80.40 36.92 81.36 36.04C82.04 35.48 82.84 35 83.56 34.48C83.48 35.32 83.40 36.16 83.28 37C83.08 38 82.84 38.96 83.60 39.76C83.76 39.96 84.16 40.08 84.48 40.08C84.60 40.08 84.88 39.68 84.84 39.52C84.28 37.28 85.32 35.40 86.12 33.48C86.48 32.56 87.56 31.36 86.60 30.64C85.32 29.68 84.68 31.28 83.92 32C82.04 33.72 80.32 35.60 78.48 37.36C78 37.80 77.28 38 76.68 38.32C76.56 37.56 76.36 36.80 76.36 36.08C76.36 35.56 76.60 35.04 76.76 34.56C76.96 33.96 77.24 33.40 77.40 32.84C77.44 32.56 77.40 32.08 77.20 31.92C77 31.80 76.56 31.84 76.24 31.92C76 31.96 75.80 32.20 75.60 32.32C72.96 33.76 70.44 35.36 68.28 37.44C68.04 37.68 67.52 37.64 67.12 37.72C67.16 37.40 67.04 37 67.20 36.76C67.96 35.28 68.80 33.84 69.64 32.44C70.04 31.76 70.68 31.16 70.92 30.44C71.08 29.88 71.04 29.08 70.76 28.52C70.36 27.72 69.60 28 68.92 28.24C65.12 29.72 62.08 32.16 59.60 35.36C59.04 36.08 58.72 37.04 58.44 37.96C58.16 38.84 58.72 39.32 59.52 39.36C60.24 39.40 60.52 39.04 60.36 38.16C60.24 37.56 60.60 36.84 60.88 36.24C62.40 33.16 65 31.32 68 29.88C68.24 29.76 68.48 29.64 68.72 29.60C68.96 29.60 69.32 29.60 69.44 29.72C69.52 29.88 69.52 30.28 69.40 30.44C68.72 31.44 67.88 32.40 67.32 33.48C66.48 35 65.80 36.60 65.24 38.24C65.08 38.68 65.36 39.44 65.72 39.80C65.96 40.04 66.76 39.92 67.16 39.72C67.84 39.36 68.48 38.84 69.08 38.32C70.16 37.44 71.16 36.48 72.28 35.64C72.96 35.12 73.76 34.76 74.52 34.32C74.56 35.24 74.60 36.16 74.64 37.08C74.64 37.40 74.60 37.76 74.56 38.44ZM87.80 37.60C87.92 38.40 87.84 38.76 88 38.92C88.32 39.36 88.76 40 89.16 40C89.88 40 90 39.32 89.88 38.60C89.44 36.68 90.24 35.04 91.20 33.48C91.44 33.12 91.96 32.84 92 32.48C92.08 31.84 92.12 30.96 91.76 30.60C91.12 30 90.36 30.52 90.08 31.20C89.20 33.48 88.44 35.76 87.80 37.60ZM95.32 24.96C95.16 24.04 95.20 23.20 94.92 22.52C94.80 22.12 94.16 21.92 93.76 21.64C93.56 22.04 93.12 22.52 93.20 22.88C93.40 23.68 93.84 24.44 94.28 25.20C94.36 25.32 94.76 25.40 94.96 25.36C95.12 25.28 95.24 25 95.32 24.96ZM97.28 37.92C97.28 39.84 98.12 40.40 99.36 39.76C100.00 39.40 100.48 38.84 101.08 38.40C101.28 38.24 101.56 38.12 101.80 38C101.88 38.24 102.00 38.48 102.04 38.76C102.12 39.16 102.04 39.64 102.20 40C102.36 40.36 102.72 40.60 103.00 40.92C103.12 40.60 103.32 40.28 103.36 40C103.44 38.52 103.88 37.16 104.80 36C105.08 35.60 105.20 35.08 105.36 34.60C105.64 33.88 106.32 33.04 105.36 32.52C104.44 32.04 104.28 33.16 103.84 33.64C102.52 35.16 101.24 36.72 99.92 38.24C99.68 38.48 99.16 38.48 98.76 38.60C98.76 38.20 98.64 37.76 98.76 37.44C99.40 35.92 100.16 34.44 100.80 32.92C101.24 31.88 101.04 30.92 100.44 30.56C99.64 30.04 99.12 30.76 98.48 31.04C98.24 31.16 98.00 31.36 97.80 31.56C95.92 33.44 94.00 35.28 92.16 37.20C91.80 37.52 91.52 38 91.40 38.48C91.36 38.72 91.64 39.08 91.84 39.36C91.88 39.40 92.32 39.20 92.48 39.04C93.92 37.36 95.28 35.60 96.76 33.96C97.40 33.24 98.36 32.80 99.16 32.24C99.64 33.36 98.76 34.08 98.44 35C98.00 36.12 97.56 37.24 97.28 37.92ZM133.40 13.08C132.36 13.12 131.32 13.24 130.32 13.52C127.20 14.44 124.52 16.20 121.84 18.04C121.76 18.08 121.72 18.16 121.64 18.24C121.32 18.56 121.24 19.32 121.44 19.68C121.88 20.44 122.44 21.04 123.24 21.40C124.16 21.84 125.12 22.24 126.08 22.60C128.92 23.64 131.60 25 133.84 27.08C135.04 27.80 135.76 28.92 136.48 30.08C136.72 30.56 136.80 31.08 136.60 31.60C136.32 32.36 135.96 33.08 135.36 33.72C134.68 34.48 133.84 35.12 132.96 35.64C130.88 36.88 128.68 37.76 126.36 38.40C124.64 38.84 123.08 38.52 121.56 37.84C120.92 37.56 120.36 37.04 119.84 36.52C119.48 36.16 119.16 35.72 118.92 35.28C118.68 34.76 119.16 34.32 119.24 33.80C119.28 33.52 119 33.24 118.72 33.20C117.80 32.96 116.92 34.40 117.20 35.08C118.04 36.80 119.16 38.24 121 38.96C121.20 39.04 121.40 39.12 121.60 39.24C123.04 39.96 124.56 40.04 126.12 39.68C128.76 39.04 131.28 38.08 133.64 36.76C134.64 36.24 135.56 35.56 136.44 34.84C137.92 33.56 138.32 31.92 137.92 30.04C137.88 29.84 137.80 29.64 137.68 29.48C136.84 28.16 135.96 26.88 134.68 25.96C133.92 25.40 133.20 24.80 132.44 24.28C131 23.24 129.56 22.24 127.84 21.76C126.84 21.48 125.88 21 124.92 20.64C124.56 20.48 124.20 20.28 123.84 20.04C123.64 19.96 123.52 19.80 123.36 19.68C123.20 19.52 123.20 18.96 123.32 18.80C124.40 17.60 125.92 17.12 127.28 16.32C128.60 15.56 130.08 15.08 131.64 14.80C132.52 14.64 133.28 14.80 134.08 15.04C134.84 15.28 135.12 16.20 134.68 16.80C134.56 16.96 134.44 17.12 134.28 17.28C134.04 17.60 133.76 17.92 133.52 18.24C133.28 18.52 133.28 18.92 133.52 19.08C133.80 19.24 134.08 19.20 134.40 19.04C135.16 18.72 135.80 18.24 136.40 17.60C136.88 17.12 136.88 16.52 136.76 15.88C136.60 15.24 136.20 14.76 135.80 14.28C135.20 13.52 134.40 13.08 133.40 13.08ZM138.32 37.72C137.56 37.68 137 38.12 137.04 38.64C137.08 39.40 137.76 40.04 138.52 40C139.04 39.96 139.56 39.56 139.68 39C139.76 38.64 139.48 38.16 138.96 37.92C138.72 37.84 138.44 37.76 138.32 37.72ZM152.72 24.56L152.68 24.60C152.60 24.28 152.60 23.96 152.48 23.68C152.08 22.88 151.68 22.12 151.28 21.32C150.92 20.60 151 19.92 151.28 19.20C151.48 18.60 151.88 18.08 152.32 17.60C154.40 15.48 156.88 14.36 159.84 14.32C160.32 14.32 160.80 14.36 161.28 14.36C162.36 14.36 163.32 14.76 164.24 15.32C165.12 15.88 165.60 16.68 165.76 17.68C165.88 18.48 165.84 19.28 165.60 20.08C165.12 21.76 164.48 23.40 163.72 25C163.28 25.92 162.64 26.64 161.80 27.16C160.76 27.88 159.64 28.52 158.36 28.88C158.20 28.92 157.76 28.80 157.72 28.68C157.68 28.52 157.64 28.36 157.68 28.24C158.20 26.96 158.76 25.72 159.60 24.64C160.08 24.04 160.12 23.32 160.28 22.60C160.36 22.28 159.68 21.64 159.32 21.76C159.08 21.80 158.84 21.96 158.76 22.16C158.16 23.40 157.48 24.56 157.08 25.88C156.80 26.72 156.44 27.56 155.92 28.28C155.88 28.36 155.60 28.36 155.52 28.28C155.32 28.16 155.20 27.92 155.04 27.76C154.84 27.56 154.36 27.68 154.20 27.96C154.08 28.28 154.08 28.56 154.16 28.92C154.28 29.32 154.64 29.56 154.88 29.84C155.08 30.12 155.16 30.44 154.96 30.76C154.20 32.08 153.56 33.44 152.84 34.80C152.20 35.92 151.60 37.04 151 38.20C150.80 38.52 150.68 38.92 150.56 39.32C150.52 39.44 150.64 39.60 150.72 39.72C150.88 39.96 151.12 40.08 151.36 40C151.56 39.88 151.80 39.80 151.96 39.64C152.56 39.08 152.88 38.32 153.20 37.60C153.68 36.48 154.12 35.36 154.60 34.28C155.08 33.24 155.68 32.28 156.20 31.28C156.52 30.68 156.96 30.24 157.64 30.08C157.84 30.04 158.08 30 158.32 29.92C159.92 29.52 161.32 28.76 162.64 27.84C163.60 27.20 164.36 26.40 164.88 25.36C165.44 24.28 165.80 23.12 166.24 22C166.88 20.40 166.92 18.72 166.76 17.04C166.72 16.36 166.44 15.80 166 15.28C165.40 14.64 164.68 14.12 163.88 13.76C162.04 12.92 160.12 12.80 158.20 13.24C157.32 13.44 156.48 13.68 155.64 14C153.60 14.76 151.76 15.88 150.36 17.64C150.08 17.96 149.88 18.28 149.84 18.72C149.80 19.20 149.76 19.68 149.76 20.16C149.76 20.88 149.92 21.56 150.44 22.16C151 22.84 151.56 23.52 152.12 24.20C152.28 24.36 152.52 24.44 152.72 24.56ZM162.12 37.72C161.36 37.68 160.80 38.12 160.84 38.64C160.88 39.40 161.56 40.04 162.32 40C162.84 39.96 163.36 39.56 163.48 39C163.56 38.64 163.28 38.16 162.76 37.92C162.52 37.84 162.24 37.76 162.12 37.72Z" fill="#d1d5db" stroke="#d1d5db"></path></svg>