<?xml version="1.0" standalone="no"?>
<!DOCTYPE svg PUBLIC "-//W3C//DTD SVG 20010904//EN"
 "http://www.w3.org/TR/2001/REC-SVG-20010904/DTD/svg10.dtd">
<svg version="1.0" xmlns="http://www.w3.org/2000/svg"
 width="316.000000pt" height="105.000000pt" viewBox="0 0 316.000000 105.000000"
 preserveAspectRatio="xMidYMid meet">

<g transform="translate(0.000000,105.000000) scale(0.100000,-0.100000)"
fill="#d1d5db" stroke="none">
<path d="M2648 821 c-54 -43 -108 -222 -108 -359 0 -63 -2 -71 -30 -97 -23
-22 -33 -26 -42 -17 -9 9 -8 32 5 99 15 80 16 89 1 100 -30 22 -57 0 -74 -57
-21 -74 -40 -77 -40 -6 0 40 -4 57 -16 64 -35 19 -78 -5 -129 -73 -13 -18 -14
-16 -8 28 l6 47 -31 0 c-38 0 -48 -16 -61 -101 -8 -49 -17 -69 -37 -87 -56
-49 -104 -12 -104 81 l0 47 44 0 c65 0 96 14 96 45 0 22 -4 25 -35 25 l-35 0
27 41 c35 53 45 149 18 179 -55 61 -137 -20 -175 -172 -10 -40 -16 -47 -39
-50 -22 -2 -26 -8 -26 -33 0 -23 5 -31 23 -33 18 -3 22 -10 22 -41 0 -62 -87
-127 -152 -113 -28 6 -21 16 25 37 56 27 84 79 67 129 -16 51 -76 64 -140 31
-59 -30 -88 -141 -55 -205 40 -76 172 -81 251 -9 20 19 21 19 33 -5 25 -45
104 -61 162 -31 26 14 30 14 35 0 7 -18 48 -20 61 -2 5 6 17 37 28 67 33 97
65 130 65 66 0 -41 17 -56 66 -59 32 -2 39 -6 45 -30 12 -44 28 -57 69 -57 26
0 48 8 68 25 l29 24 23 -24 c31 -33 92 -34 139 -2 l34 23 23 -23 c29 -29 86
-31 129 -5 29 18 31 18 60 0 67 -41 151 -9 181 67 57 150 -78 263 -188 158
-25 -24 -32 -43 -42 -112 -4 -30 -43 -63 -70 -59 -33 5 -31 42 4 93 70 101
116 241 107 321 -14 124 -116 105 -172 -31 l-25 -60 0 68 c0 53 -4 71 -20 87
-25 25 -60 26 -92 1z m52 -93 c0 -48 -17 -109 -51 -183 -21 -47 -23 -48 -27
-22 -2 15 4 61 12 102 27 132 66 193 66 103z m193 27 c14 -35 -46 -243 -75
-261 -12 -8 -3 74 18 161 25 104 44 136 57 100z m-846 -65 c-5 -37 -44 -116
-53 -107 -6 5 11 84 26 121 15 41 34 33 27 -14z m693 -136 c-6 -32 -10 -85
-10 -116 0 -49 -3 -59 -27 -78 -30 -23 -61 -23 -75 0 -7 11 3 37 41 100 28 46
57 101 63 122 16 54 19 42 8 -28z m-963 -81 c5 -14 -40 -63 -57 -63 -15 0 -12
32 6 58 16 24 44 26 51 5z m1293 -12 c16 -31 12 -77 -9 -102 -16 -20 -23 -22
-38 -13 -21 13 -30 83 -13 114 14 25 46 26 60 1z"/>
<path d="M160 774 c-84 -23 -139 -52 -146 -79 -13 -53 9 -55 116 -9 54 23 80
28 152 28 73 1 91 -2 115 -20 15 -12 29 -31 31 -43 5 -31 -46 -78 -94 -86 -74
-12 -82 -15 -87 -34 -7 -27 3 -37 43 -46 84 -18 95 -85 20 -125 -28 -15 -136
-24 -143 -13 -7 12 16 163 37 242 9 30 13 58 10 63 -8 13 -70 9 -82 -4 -27
-33 -77 -358 -60 -390 10 -21 51 -24 70 -5 7 8 47 17 88 21 102 9 148 25 185
62 53 53 55 137 4 165 -21 11 -20 12 23 36 54 30 78 67 78 123 0 34 -6 48 -33
75 -18 18 -51 38 -72 44 -55 15 -189 13 -255 -5z"/>
<path d="M1370 759 c-120 -54 -180 -169 -180 -343 1 -141 41 -206 130 -206 64
0 78 21 100 150 12 67 21 80 56 80 11 0 44 12 72 26 128 64 144 238 27 294
-55 27 -145 26 -205 -1z m143 -61 c34 -17 46 -39 47 -80 0 -44 -35 -91 -80
-107 l-30 -10 6 79 7 80 -36 0 c-20 0 -39 -5 -42 -10 -3 -6 -12 -41 -19 -78
-11 -59 -15 -67 -37 -71 -13 -1 -27 -8 -30 -13 -11 -18 3 -48 22 -48 22 0 23
-19 6 -94 -15 -60 -30 -68 -53 -25 -13 25 -15 51 -12 118 6 124 45 204 123
252 34 21 96 25 128 7z"/>
<path d="M2430 670 c-24 -24 -25 -43 -4 -64 33 -33 94 -12 94 32 0 52 -52 70
-90 32z"/>
<path d="M789 546 c-26 -13 -47 -68 -48 -128 -1 -30 -7 -40 -34 -57 -43 -26
-81 -32 -103 -17 -16 12 -14 14 18 25 48 16 79 51 85 99 7 55 -20 82 -82 82
-96 0 -164 -120 -120 -214 9 -18 28 -40 44 -49 37 -22 110 -22 157 0 34 17 36
17 45 0 11 -20 58 -23 64 -4 29 84 49 130 65 149 19 23 19 23 17 -67 l-2 -90
32 -3 c38 -4 35 -10 53 150 6 59 9 111 6 116 -22 36 -93 10 -137 -50 -18 -24
-29 -35 -26 -26 27 77 14 108 -34 84z m-154 -80 c0 -21 -50 -64 -62 -53 -3 4
1 23 10 43 19 38 52 45 52 10z"/>
</g>
</svg>
